<svg width="1258" height="666" viewBox="0 0 1258 666" fill="none" xmlns="http://www.w3.org/2000/svg">
<path fill-rule="evenodd" clip-rule="evenodd" d="M344.428 5.08115C338.999 0.796328 331.801 0 324.885 0H22.8518C18.0944 0 13.195 0.641835 9.19201 3.21255C2.15297 7.73298 0 16.5116 0 24.8771V333.289C0 345.451 3.15681 358.859 14.3952 363.507C18.2788 365.114 22.5359 366 27 366H324C342.225 366 357 351.225 357 333V31C357 20.4882 352.085 11.1244 344.428 5.08115ZM394.353 0C381.048 0 372 17.6945 372 31V333C372 359.51 350.51 381 324 381H27C14.8221 381 0 389.191 0 401.369V607C0 639.585 26.4152 666 59 666H1199C1231.58 666 1258 639.585 1258 607V59C1258 26.4152 1231.58 0 1199 0H394.353Z" fill="white"/>
</svg>
